<?xml version="1.0" encoding="UTF-8" standalone="no"?>
<!-- Created with Inkscape (http://www.inkscape.org/) -->

<svg
   xmlns:svg="http://www.w3.org/2000/svg"
   xmlns="http://www.w3.org/2000/svg"
   xmlns:xlink="http://www.w3.org/1999/xlink"
   xmlns:inkscape="http://www.inkscape.org/namespaces/inkscape"
   version="1.1"
   width="296.54663"
   height="290.19281"
   id="svg2">
  <title
     id="title3951">Simple Graph</title>
  <defs
     id="defs4"><inkscape:path-effect
   effect="spiro"
   id="path-effect3901" />
<inkscape:path-effect
   effect="spiro"
   id="path-effect3897" />
<inkscape:path-effect
   effect="spiro"
   id="path-effect3893" />
<inkscape:path-effect
   effect="spiro"
   id="path-effect2894" />
<linearGradient
   x1="31.25"
   y1="57.214287"
   x2="32.67857"
   y2="12.928572"
   id="linearGradient4626"
   xlink:href="#linearGradient2942"
   gradientUnits="userSpaceOnUse"
   gradientTransform="translate(1016.2364,910.94697)" />
<linearGradient
   x1="31.25"
   y1="57.214287"
   x2="32.67857"
   y2="12.928572"
   id="linearGradient4622"
   xlink:href="#linearGradient2942"
   gradientUnits="userSpaceOnUse"
   gradientTransform="translate(989.01271,909.88632)" />
<linearGradient
   x1="42.447178"
   y1="10.421766"
   x2="11.848988"
   y2="39.551979"
   id="linearGradient4618"
   xlink:href="#linearGradient2866"
   gradientUnits="userSpaceOnUse" />
<linearGradient
   x1="1029.9236"
   y1="920.83154"
   x2="1046.2141"
   y2="898.55865"
   id="linearGradient4616"
   xlink:href="#linearGradient2896"
   gradientUnits="userSpaceOnUse"
   gradientTransform="matrix(0.974402,0,0,1.0008685,32.104015,4.2543016)" />
<linearGradient
   x1="42.142857"
   y1="58.642857"
   x2="24.821428"
   y2="35.170277"
   id="linearGradient4614"
   xlink:href="#linearGradient2934"
   gradientUnits="userSpaceOnUse"
   gradientTransform="matrix(0.9620114,0,0,1.0011324,1070.4819,902.93746)" />
<linearGradient
   x1="42.142857"
   y1="58.642857"
   x2="24.821428"
   y2="35.170277"
   id="linearGradient4610"
   xlink:href="#linearGradient2934"
   gradientUnits="userSpaceOnUse"
   gradientTransform="matrix(0.9287841,0,0,1.0021423,1108.2016,868.94758)" />
<linearGradient
   x1="42.142857"
   y1="58.642857"
   x2="24.821428"
   y2="35.170277"
   id="linearGradient4608"
   xlink:href="#linearGradient2934"
   gradientUnits="userSpaceOnUse"
   gradientTransform="matrix(0.967549,0,0,0.9614984,1015.7735,913.12981)" />
<linearGradient
   x1="42.142857"
   y1="58.642857"
   x2="24.821428"
   y2="35.170277"
   id="linearGradient4606"
   xlink:href="#linearGradient2934"
   gradientUnits="userSpaceOnUse"
   gradientTransform="matrix(0.9620114,0,0,1.0011324,1105.3069,895.86639)" />
<linearGradient
   x1="42.142857"
   y1="58.642857"
   x2="24.821428"
   y2="35.170277"
   id="linearGradient4604"
   xlink:href="#linearGradient2934"
   gradientUnits="userSpaceOnUse"
   gradientTransform="matrix(0.9620114,0,0,1.0011324,1098.9429,906.11944)" />
<linearGradient
   x1="42.142857"
   y1="58.642857"
   x2="24.821428"
   y2="35.170277"
   id="linearGradient4600"
   xlink:href="#linearGradient2934"
   gradientUnits="userSpaceOnUse"
   gradientTransform="matrix(0.9287841,0,0,1.0021423,1080.4476,896.17119)" />
<linearGradient
   x1="42.142857"
   y1="58.642857"
   x2="24.821428"
   y2="35.170277"
   id="linearGradient3826"
   xlink:href="#linearGradient2934"
   gradientUnits="userSpaceOnUse"
   gradientTransform="matrix(0.9287841,0,0,1.0021423,1016.808,880.08451)" />
<linearGradient
   x1="42.142857"
   y1="58.642857"
   x2="24.821428"
   y2="35.170277"
   id="linearGradient3738"
   xlink:href="#linearGradient2934"
   gradientUnits="userSpaceOnUse"
   gradientTransform="matrix(0.9620114,0,0,1.0011324,1015.8579,910.71563)" />
<linearGradient
   x1="31.25"
   y1="57.214287"
   x2="32.67857"
   y2="12.928572"
   id="linearGradient2948"
   xlink:href="#linearGradient2942"
   gradientUnits="userSpaceOnUse"
   gradientTransform="translate(1016.4131,910.7702)" />
<linearGradient
   x1="1029.9236"
   y1="920.83154"
   x2="1046.2141"
   y2="898.55865"
   id="linearGradient2902"
   xlink:href="#linearGradient2896"
   gradientUnits="userSpaceOnUse"
   gradientTransform="translate(45.050763,5.050763)" />
<linearGradient
   x1="42.447178"
   y1="10.421766"
   x2="11.848988"
   y2="39.551979"
   id="linearGradient2872"
   xlink:href="#linearGradient2866"
   gradientUnits="userSpaceOnUse" />
<linearGradient
   id="linearGradient2866">
  <stop
     id="stop2868"
     style="stop-color:#ffae62;stop-opacity:1"
     offset="0" />
  <stop
     id="stop2870"
     style="stop-color:#ffffff;stop-opacity:1"
     offset="1" />
</linearGradient>
<linearGradient
   id="linearGradient2896">
  <stop
     id="stop2898"
     style="stop-color:#9b6108;stop-opacity:1"
     offset="0" />
  <stop
     id="stop2900"
     style="stop-color:#ffffff;stop-opacity:1"
     offset="1" />
</linearGradient>
<linearGradient
   id="linearGradient2934">
  <stop
     id="stop2936"
     style="stop-color:#c6d0ff;stop-opacity:1"
     offset="0" />
  <stop
     id="stop2938"
     style="stop-color:#ffffff;stop-opacity:1"
     offset="1" />
</linearGradient>
<linearGradient
   id="linearGradient2942">
  <stop
     id="stop2944"
     style="stop-color:#5555a2;stop-opacity:1"
     offset="0" />
  <stop
     id="stop2946"
     style="stop-color:#5555a2;stop-opacity:0"
     offset="1" />
</linearGradient>
<linearGradient
   x1="42.142857"
   y1="58.642857"
   x2="24.821428"
   y2="35.170277"
   id="linearGradient4608-4"
   xlink:href="#linearGradient2934-8"
   gradientUnits="userSpaceOnUse"
   gradientTransform="matrix(0.967549,0,0,0.9614984,1015.7735,913.12981)" />
<linearGradient
   id="linearGradient2934-8">
  <stop
     id="stop2936-8"
     style="stop-color:#c6d0ff;stop-opacity:1"
     offset="0" />
  <stop
     id="stop2938-2"
     style="stop-color:#ffffff;stop-opacity:1"
     offset="1" />
</linearGradient>
<linearGradient
   x1="31.25"
   y1="57.214287"
   x2="32.67857"
   y2="12.928572"
   id="linearGradient4626-4"
   xlink:href="#linearGradient2942-5"
   gradientUnits="userSpaceOnUse"
   gradientTransform="translate(1016.2364,910.94697)" />
<linearGradient
   id="linearGradient2942-5">
  <stop
     id="stop2944-5"
     style="stop-color:#5555a2;stop-opacity:1"
     offset="0" />
  <stop
     id="stop2946-1"
     style="stop-color:#5555a2;stop-opacity:0"
     offset="1" />
</linearGradient>
<linearGradient
   x1="42.447178"
   y1="10.421766"
   x2="11.848988"
   y2="39.551979"
   id="linearGradient4618-7"
   xlink:href="#linearGradient2866-1"
   gradientUnits="userSpaceOnUse" />
<linearGradient
   id="linearGradient2866-1">
  <stop
     id="stop2868-1"
     style="stop-color:#ffae62;stop-opacity:1"
     offset="0" />
  <stop
     id="stop2870-5"
     style="stop-color:#ffffff;stop-opacity:1"
     offset="1" />
</linearGradient>
<linearGradient
   x1="1029.9236"
   y1="920.83154"
   x2="1046.2141"
   y2="898.55865"
   id="linearGradient4616-2"
   xlink:href="#linearGradient2896-7"
   gradientUnits="userSpaceOnUse"
   gradientTransform="matrix(0.974402,0,0,1.0008685,32.104015,4.2543016)" />
<linearGradient
   id="linearGradient2896-7">
  <stop
     id="stop2898-6"
     style="stop-color:#9b6108;stop-opacity:1"
     offset="0" />
  <stop
     id="stop2900-1"
     style="stop-color:#ffffff;stop-opacity:1"
     offset="1" />
</linearGradient>
<linearGradient
   x1="1029.9236"
   y1="920.83154"
   x2="1046.2141"
   y2="898.55865"
   id="linearGradient3701"
   xlink:href="#linearGradient2896-7"
   gradientUnits="userSpaceOnUse"
   gradientTransform="matrix(0.974402,0,0,1.0008685,32.104015,4.2543016)" />
<linearGradient
   x1="42.142857"
   y1="58.642857"
   x2="24.821428"
   y2="35.170277"
   id="linearGradient4608-4-1"
   xlink:href="#linearGradient2934-8-6"
   gradientUnits="userSpaceOnUse"
   gradientTransform="matrix(0.967549,0,0,0.9614984,1015.7735,913.12981)" />
<linearGradient
   id="linearGradient2934-8-6">
  <stop
     id="stop2936-8-8"
     style="stop-color:#c6d0ff;stop-opacity:1"
     offset="0" />
  <stop
     id="stop2938-2-5"
     style="stop-color:#ffffff;stop-opacity:1"
     offset="1" />
</linearGradient>
<linearGradient
   x1="31.25"
   y1="57.214287"
   x2="32.67857"
   y2="12.928572"
   id="linearGradient4626-4-7"
   xlink:href="#linearGradient2942-5-6"
   gradientUnits="userSpaceOnUse"
   gradientTransform="translate(1016.2364,910.94697)" />
<linearGradient
   id="linearGradient2942-5-6">
  <stop
     id="stop2944-5-1"
     style="stop-color:#5555a2;stop-opacity:1"
     offset="0" />
  <stop
     id="stop2946-1-8"
     style="stop-color:#5555a2;stop-opacity:0"
     offset="1" />
</linearGradient>
<linearGradient
   x1="42.447178"
   y1="10.421766"
   x2="11.848988"
   y2="39.551979"
   id="linearGradient4618-7-9"
   xlink:href="#linearGradient2866-1-2"
   gradientUnits="userSpaceOnUse" />
<linearGradient
   id="linearGradient2866-1-2">
  <stop
     id="stop2868-1-7"
     style="stop-color:#ffae62;stop-opacity:1"
     offset="0" />
  <stop
     id="stop2870-5-9"
     style="stop-color:#ffffff;stop-opacity:1"
     offset="1" />
</linearGradient>
<linearGradient
   x1="1029.9236"
   y1="920.83154"
   x2="1046.2141"
   y2="898.55865"
   id="linearGradient3701-5"
   xlink:href="#linearGradient2896-7-4"
   gradientUnits="userSpaceOnUse"
   gradientTransform="matrix(0.974402,0,0,1.0008685,32.104015,4.2543016)" />
<linearGradient
   id="linearGradient2896-7-4">
  <stop
     id="stop2898-6-3"
     style="stop-color:#9b6108;stop-opacity:1"
     offset="0" />
  <stop
     id="stop2900-1-1"
     style="stop-color:#ffffff;stop-opacity:1"
     offset="1" />
</linearGradient>
<linearGradient
   x1="1029.9236"
   y1="920.83154"
   x2="1046.2141"
   y2="898.55865"
   id="linearGradient3787"
   xlink:href="#linearGradient2896-7-4"
   gradientUnits="userSpaceOnUse"
   gradientTransform="matrix(0.974402,0,0,1.0008685,32.104015,4.2543016)" />
<linearGradient
   x1="42.142857"
   y1="58.642857"
   x2="24.821428"
   y2="35.170277"
   id="linearGradient4608-4-3"
   xlink:href="#linearGradient2934-8-8"
   gradientUnits="userSpaceOnUse"
   gradientTransform="matrix(0.967549,0,0,0.9614984,1015.7735,913.12981)" />
<linearGradient
   id="linearGradient2934-8-8">
  <stop
     id="stop2936-8-7"
     style="stop-color:#c6d0ff;stop-opacity:1"
     offset="0" />
  <stop
     id="stop2938-2-4"
     style="stop-color:#ffffff;stop-opacity:1"
     offset="1" />
</linearGradient>
<linearGradient
   x1="31.25"
   y1="57.214287"
   x2="32.67857"
   y2="12.928572"
   id="linearGradient4626-4-2"
   xlink:href="#linearGradient2942-5-7"
   gradientUnits="userSpaceOnUse"
   gradientTransform="translate(1016.2364,910.94697)" />
<linearGradient
   id="linearGradient2942-5-7">
  <stop
     id="stop2944-5-7"
     style="stop-color:#5555a2;stop-opacity:1"
     offset="0" />
  <stop
     id="stop2946-1-9"
     style="stop-color:#5555a2;stop-opacity:0"
     offset="1" />
</linearGradient>
<linearGradient
   x1="42.447178"
   y1="10.421766"
   x2="11.848988"
   y2="39.551979"
   id="linearGradient4618-7-3"
   xlink:href="#linearGradient2866-1-1"
   gradientUnits="userSpaceOnUse" />
<linearGradient
   id="linearGradient2866-1-1">
  <stop
     id="stop2868-1-9"
     style="stop-color:#ffae62;stop-opacity:1"
     offset="0" />
  <stop
     id="stop2870-5-8"
     style="stop-color:#ffffff;stop-opacity:1"
     offset="1" />
</linearGradient>
<linearGradient
   x1="1029.9236"
   y1="920.83154"
   x2="1046.2141"
   y2="898.55865"
   id="linearGradient3701-6"
   xlink:href="#linearGradient2896-7-5"
   gradientUnits="userSpaceOnUse"
   gradientTransform="matrix(0.974402,0,0,1.0008685,32.104015,4.2543016)" />
<linearGradient
   id="linearGradient2896-7-5">
  <stop
     id="stop2898-6-0"
     style="stop-color:#9b6108;stop-opacity:1"
     offset="0" />
  <stop
     id="stop2900-1-2"
     style="stop-color:#ffffff;stop-opacity:1"
     offset="1" />
</linearGradient>
<linearGradient
   x1="1029.9236"
   y1="920.83154"
   x2="1046.2141"
   y2="898.55865"
   id="linearGradient3787-8"
   xlink:href="#linearGradient2896-7-5"
   gradientUnits="userSpaceOnUse"
   gradientTransform="matrix(0.974402,0,0,1.0008685,32.104015,4.2543016)" />


<linearGradient
   id="linearGradient2934-8-0">
  <stop
     id="stop2936-8-9"
     style="stop-color:#c6d0ff;stop-opacity:1"
     offset="0" />
  <stop
     id="stop2938-2-0"
     style="stop-color:#ffffff;stop-opacity:1"
     offset="1" />
</linearGradient>
<linearGradient
   id="linearGradient2866-1-4">
  <stop
     id="stop2868-1-6"
     style="stop-color:#ffae62;stop-opacity:1"
     offset="0" />
  <stop
     id="stop2870-5-0"
     style="stop-color:#ffffff;stop-opacity:1"
     offset="1" />
</linearGradient>
<linearGradient
   x1="1029.9236"
   y1="920.83154"
   x2="1046.2141"
   y2="898.55865"
   id="linearGradient3701-66"
   xlink:href="#linearGradient2896-7-1"
   gradientUnits="userSpaceOnUse"
   gradientTransform="matrix(0.974402,0,0,1.0008685,32.104015,4.2543016)" />
<linearGradient
   id="linearGradient2896-7-1">
  <stop
     id="stop2898-6-8"
     style="stop-color:#9b6108;stop-opacity:1"
     offset="0" />
  <stop
     id="stop2900-1-4"
     style="stop-color:#ffffff;stop-opacity:1"
     offset="1" />
</linearGradient>
<linearGradient
   x1="42.142857"
   y1="58.642857"
   x2="24.821428"
   y2="35.170277"
   id="linearGradient4077"
   xlink:href="#linearGradient2934-8"
   gradientUnits="userSpaceOnUse"
   gradientTransform="matrix(0.967549,0,0,0.9614984,1015.7735,913.12981)" />
<linearGradient
   x1="31.25"
   y1="57.214287"
   x2="32.67857"
   y2="12.928572"
   id="linearGradient4079"
   xlink:href="#linearGradient2942-5"
   gradientUnits="userSpaceOnUse"
   gradientTransform="translate(1016.2364,910.94697)" />
<linearGradient
   x1="42.447178"
   y1="10.421766"
   x2="11.848988"
   y2="39.551979"
   id="linearGradient4081"
   xlink:href="#linearGradient2866-1"
   gradientUnits="userSpaceOnUse" />
<linearGradient
   x1="1029.9236"
   y1="920.83154"
   x2="1046.2141"
   y2="898.55865"
   id="linearGradient4083"
   xlink:href="#linearGradient2896-7"
   gradientUnits="userSpaceOnUse"
   gradientTransform="matrix(0.974402,0,0,1.0008685,32.104015,4.2543016)" />
</defs>
  <g
     transform="translate(-32.748696,-644.16322)"
     id="layer1">
    <g
       transform="translate(-906.98,-96.986967)"
       id="layer1-9">
      <path
         d="m 1063.6641,971.38744 -35.3075,0 c 2.329,-24.68234 13.7576,-25.01044 17.5053,-25.07769 3.76,-0.0675 15.61,0.1625 17.8022,25.07769 z"
         id="path4598"
         style="fill:url(#linearGradient4608);fill-opacity:1;fill-rule:evenodd;stroke:#5555a2;stroke-width:1.44677794;stroke-linecap:butt;stroke-linejoin:miter;stroke-miterlimit:4;stroke-opacity:1;stroke-dasharray:none" />
      <path
         d="m 1043.338,947.40224 1.9198,1.91965 -4.209,16.8505 5.064,5.41757 4.9448,-5.39307 -4.0776,-16.84774 1.9065,-1.90652 c 0,0 -2.6261,-1.57178 -5.5485,-0.0404 z"
         id="path4624"
         style="fill:url(#linearGradient4626);fill-opacity:1;fill-rule:evenodd;stroke:#5555a2;stroke-width:0.75;stroke-linecap:butt;stroke-linejoin:miter;stroke-miterlimit:4;stroke-opacity:1;stroke-dasharray:none" />
      <path
         d="m 47.729708,13.1767 a 16.478113,16.478113 0 1 1 -32.956227,0 16.478113,16.478113 0 1 1 32.956227,0 z"
         transform="matrix(1.031671,0,0,1.031645,1013.659,915.1308)"
         id="path1954"
         style="fill:url(#linearGradient4618);fill-opacity:1;stroke:#a95800;stroke-width:1.45397019;stroke-miterlimit:4;stroke-opacity:1;stroke-dasharray:none;stroke-dashoffset:0" />
      <path
         d="m 1028.4335,932.70541 c 0,0 11.3784,0.37747 14.8951,-2.29829 0,0 12.8944,-9.17459 18.2161,-9.47519 0,0 -5.8514,-12.0259 -18.9325,-9.29812 0,0 -15.8334,1.98973 -14.1787,21.0716 z"
         id="path2860"
         style="fill:url(#linearGradient4616);fill-opacity:1;fill-rule:evenodd;stroke:#531c09;stroke-width:1.4813199;stroke-linecap:butt;stroke-linejoin:miter;stroke-miterlimit:4;stroke-opacity:1;stroke-dasharray:none" />
    </g>
    <path
       d="m 80.154842,645.51702 0,236.69032 247.786688,0"
       id="path2892"
       style="fill:none;stroke:#000000;stroke-width:2.70759845;stroke-linecap:butt;stroke-linejoin:miter;stroke-miterlimit:4;stroke-opacity:1;stroke-dasharray:none" />
    <path
       d="m 60,812.36218 30,0"
       id="path3891"
       style="fill:none;stroke:#000000;stroke-width:2;stroke-linecap:butt;stroke-linejoin:miter;stroke-miterlimit:4;stroke-opacity:1;stroke-dasharray:none" />
    <path
       d="m 60,742.36218 30,0"
       id="path3895"
       style="fill:none;stroke:#000000;stroke-width:2;stroke-linecap:butt;stroke-linejoin:miter;stroke-miterlimit:4;stroke-opacity:1;stroke-dasharray:none" />
    <path
       d="m 60,672.36218 30,0"
       id="path3899"
       style="fill:none;stroke:#000000;stroke-width:2;stroke-linecap:butt;stroke-linejoin:miter;stroke-miterlimit:4;stroke-opacity:1;stroke-dasharray:none" />
    <g
       transform="matrix(1.7439921,0,0,1.7439921,35.642227,773.33692)"
       id="g3904">
	<path
   d="M 9.442,30.084 H 7.333 V 16.643 c -0.508,0.484 -1.174,0.969 -1.998,1.453 -0.824,0.484 -1.564,0.848 -2.221,1.09 v -2.039 c 1.18,-0.555 2.211,-1.227 3.094,-2.016 0.883,-0.789 1.508,-1.555 1.875,-2.297 h 1.359 v 17.25 z"
   id="path3906" />

</g>
    <g
       transform="matrix(1.7633124,0,0,1.7633124,33.309993,700.57848)"
       id="g3920">
	<path
   d="m 12.583,28.057 v 2.027 H 1.228 C 1.212,29.576 1.294,29.088 1.474,28.619 1.763,27.846 2.226,27.084 2.863,26.334 3.5,25.584 4.42,24.717 5.623,23.732 7.49,22.201 8.752,20.988 9.408,20.093 c 0.656,-0.895 0.984,-1.74 0.984,-2.537 0,-0.836 -0.299,-1.541 -0.896,-2.115 C 8.899,14.867 8.119,14.58 7.158,14.58 6.142,14.58 5.33,14.885 4.72,15.494 4.11,16.103 3.802,16.947 3.794,18.025 L 1.626,17.802 c 0.148,-1.617 0.707,-2.85 1.676,-3.697 0.969,-0.847 2.27,-1.271 3.902,-1.271 1.648,0 2.953,0.457 3.914,1.371 0.961,0.914 1.441,2.047 1.441,3.398 0,0.688 -0.141,1.363 -0.422,2.027 -0.281,0.664 -0.748,1.363 -1.4,2.098 -0.652,0.735 -1.736,1.742 -3.252,3.023 -1.266,1.063 -2.078,1.783 -2.438,2.162 -0.36,0.379 -0.656,0.76 -0.891,1.143 h 8.427 z"
   id="path3922" />

</g>
    <g
       transform="matrix(1.7431017,0,0,1.7431017,30.118356,634.09761)"
       id="g3936">
	<path
   d="m 1.509,25.549 2.109,-0.281 c 0.242,1.195 0.654,2.057 1.236,2.584 0.582,0.527 1.291,0.791 2.127,0.791 0.992,0 1.83,-0.344 2.514,-1.031 0.684,-0.687 1.025,-1.539 1.025,-2.555 0,-0.969 -0.316,-1.768 -0.949,-2.396 -0.633,-0.628 -1.438,-0.943 -2.414,-0.943 -0.398,0 -0.895,0.078 -1.488,0.234 L 5.903,20.1 c 0.141,0.016 0.254,0.023 0.34,0.023 0.898,0 1.707,-0.234 2.426,-0.703 0.719,-0.469 1.078,-1.191 1.078,-2.168 0,-0.773 -0.262,-1.414 -0.785,-1.922 -0.523,-0.508 -1.199,-0.762 -2.027,-0.762 -0.82,0 -1.504,0.258 -2.051,0.773 -0.547,0.515 -0.898,1.289 -1.055,2.32 L 1.72,17.288 c 0.258,-1.414 0.844,-2.51 1.758,-3.287 0.914,-0.777 2.051,-1.166 3.41,-1.166 0.938,0 1.801,0.201 2.59,0.604 0.789,0.403 1.393,0.951 1.811,1.646 0.418,0.695 0.627,1.434 0.627,2.215 0,0.742 -0.199,1.418 -0.598,2.027 -0.399,0.609 -0.988,1.094 -1.77,1.453 1.016,0.234 1.805,0.721 2.367,1.459 0.562,0.738 0.844,1.662 0.844,2.771 0,1.5 -0.547,2.771 -1.641,3.814 -1.094,1.043 -2.477,1.564 -4.148,1.564 -1.508,0 -2.76,-0.449 -3.756,-1.348 C 2.218,28.141 1.649,26.979 1.509,25.549 z"
   id="path3938" />

</g>
    <path
       d="m 141.29424,892.63028 c 0.39096,0 0.78193,0 1.18638,0 4.78599,11.2168 9.36975,23.2964 14.29054,34.79614 1.24032,2.89861 2.66937,5.74328 6.67342,5.85113 0,0.35045 0,0.71447 0,1.06504 -5.41961,0 -10.82577,0 -16.24538,0 0,-0.35057 0,-0.71459 0,-1.06504 1.91439,-0.13487 3.667,-0.37747 4.07145,-1.88748 0.48535,-1.81999 -0.95719,-4.24672 -1.48297,-5.55448 -0.76846,-1.91438 -1.38862,-3.55915 -2.0627,-5.08248 -5.2174,0 -10.43479,0 -15.6522,0 -0.95719,2.15698 -2.31884,4.86678 -3.24907,7.38791 -0.31007,0.84934 -0.72801,2.00878 -0.59319,2.89847 0.28312,1.88749 2.6424,2.02236 4.73205,2.25151 0,0.35057 0,0.71447 0,1.06504 -4.28716,0 -8.58781,0 -12.87497,0 0,-0.35057 0,-0.71447 0,-1.06504 3.37042,-0.13488 4.71858,-2.65588 5.90496,-5.2039 2.31886,-4.98821 4.36806,-10.17866 6.49816,-15.13997 2.95248,-6.86212 5.90496,-13.62996 8.68218,-20.1415 0.0539,-0.0405 0.0405,-0.16177 0.1213,-0.17535 z m -8.26425,25.76348 c 4.57027,-0.0405 9.28885,0.0809 13.76476,-0.0535 -2.33233,-5.36567 -4.39502,-11.00097 -6.79475,-16.29928 -2.29188,5.47353 -4.66466,10.87968 -6.97001,16.35321 z"
       id="path3957"
       style="fill-rule:evenodd" />
    <g
       transform="matrix(3.2882067,0,0,3.2882067,-3178.2763,-2321.3775)"
       id="g4067">
      <path
         d="m 1063.6641,971.38744 -35.3075,0 c 2.329,-24.68234 13.7576,-25.01044 17.5053,-25.07769 3.76,-0.0675 15.61,0.1625 17.8022,25.07769 z"
         id="path4069"
         style="fill:url(#linearGradient4077);fill-opacity:1;fill-rule:evenodd;stroke:#5555a2;stroke-width:1.44677794;stroke-linecap:butt;stroke-linejoin:miter;stroke-miterlimit:4;stroke-opacity:1;stroke-dasharray:none" />
      <path
         d="m 1043.338,947.40224 1.9198,1.91965 -4.209,16.8505 5.064,5.41757 4.9448,-5.39307 -4.0776,-16.84774 1.9065,-1.90652 c 0,0 -2.6261,-1.57178 -5.5485,-0.0404 z"
         id="path4071"
         style="fill:url(#linearGradient4079);fill-opacity:1;fill-rule:evenodd;stroke:#5555a2;stroke-width:0.75;stroke-linecap:butt;stroke-linejoin:miter;stroke-miterlimit:4;stroke-opacity:1;stroke-dasharray:none" />
      <path
         d="m 47.729708,13.1767 a 16.478113,16.478113 0 1 1 -32.956227,0 16.478113,16.478113 0 1 1 32.956227,0 z"
         transform="matrix(1.031671,0,0,1.031645,1013.659,915.1308)"
         id="path4073"
         style="fill:url(#linearGradient4081);fill-opacity:1;stroke:#a95800;stroke-width:1.45397019;stroke-miterlimit:4;stroke-opacity:1;stroke-dasharray:none;stroke-dashoffset:0" />
      <path
         d="m 1028.4335,932.70541 c 0,0 11.3784,0.37747 14.8951,-2.29829 0,0 12.8944,-9.17459 18.2161,-9.47519 0,0 -5.8514,-12.0259 -18.9325,-9.29812 0,0 -15.8334,1.98973 -14.1787,21.0716 z"
         id="path4075"
         style="fill:url(#linearGradient4083);fill-opacity:1;fill-rule:evenodd;stroke:#531c09;stroke-width:1.4813199;stroke-linecap:butt;stroke-linejoin:miter;stroke-miterlimit:4;stroke-opacity:1;stroke-dasharray:none" />
    </g>
    <path
       d="m 246.63284,891.81519 c 5.22188,0 10.69603,0 16.01881,0 5.42369,0 10.25456,0.16395 13.93762,2.01815 3.4308,1.72794 6.31923,5.05791 5.92821,10.09053 -0.35317,4.6165 -3.69567,7.16429 -7.51748,8.43831 4.70473,1.22346 8.32473,3.29204 9.29595,8.0093 1.09736,5.36063 -2.03073,9.43474 -5.4363,11.42761 -3.77136,2.20738 -9.11937,2.19474 -15.09804,2.19474 -5.73902,0 -11.66724,0.0508 -17.17923,-0.0626 0,-0.30273 0,-0.60547 0,-0.92072 2.34608,-0.12615 4.49032,-0.23966 5.37325,-1.95508 0.97122,-1.86673 0.60543,-5.90304 0.60543,-8.804 0,-6.26884 0,-12.46197 0,-18.76849 0,-2.96415 0.31533,-6.88683 -0.60543,-8.74104 -0.80725,-1.58927 -2.96411,-1.95508 -5.38586,-1.82893 0,-0.30273 0,-0.60547 0,-0.92072 0,-0.0756 -0.0126,-0.16395 0.0631,-0.17659 z m 27.98876,15.70347 c 2.21993,-3.24162 1.56405,-7.59318 -0.73156,-10.09065 -3.0524,-3.30457 -9.80048,-4.21277 -15.33769,-2.73702 0,5.33537 0,10.67084 0,16.01884 6.45797,0.946 13.40787,0.69371 16.06925,-3.19117 z m 0.42886,21.15233 c 3.03979,-3.12798 2.87582,-8.27424 0.12613,-11.49057 -3.00196,-3.49391 -10.17888,-4.50299 -16.62424,-3.54435 0,5.76425 0,11.52849 0,17.29274 5.96606,1.58926 13.24389,1.09731 16.49811,-2.25782 z"
       id="path4085"
       style="fill-rule:evenodd" />
  </g>
</svg>
